# xmcd
#
# Track frame offsets: 
#        150
#        12193
#        24202
#        39505
#        51467
#        64828
#        78718
#        89038
#        102047
#        112613
#        125928
#        138906
#        151446
#        163012
#        176729
#        190681
#        200729
#        212615
#        226644
#        239254
#        249353
#        264186
#        273151
#        284105
#        296081
#
# Disc length: 4102 seconds
#
# Revision: 0
# Processed by: cddbd v1.5.2PL0 Copyright (c) Steve Scherf et al.
# Submitted via: ExactAudioCopyFreeDBPlugin 1.0
#
DISCID=64100419
DTITLE=Various Artist - Deep Feeling [CD1]
DYEAR=2014
DGENRE=Blues
TTITLE0=Freddy King - I'm Tore Down
TTITLE1=Little Milton - Same Old Blues
TTITLE2=Pee Wee Crayton - Louella Brown
TTITLE3=Buddy Guy - Ten Years Ago
TTITLE4=Albert King - Don't Throw Your Love On Me So Strong
TTITLE5=Otis Rush - Groaning The Blues
TTITLE6=Earl King - Eating And Sleeping
TTITLE7=Morris Pejoe - Maybe Blues
TTITLE8=Chuck Berry - Deep Feeling
TTITLE9=Guitar Slim - Bad Luck Blues
TTITLE10=B.B. King - Please Love Me
TTITLE11=Jimmy Reed (feat. Eddie Taylor) - I Don't Go For That
TTITLE12=John Lee Hooker - Jump Me (One More Time)
TTITLE13=Gene Phillips - Stinkin' Drunk
TTITLE14=Goree Carter - Tell Me, Is There Still A Chance
TTITLE15=King Charles (feat. Blue Charlie) - Bop Cat Stomp
TTITLE16=Johnny Fuller - Mean Old World
TTITLE17=Elmore James - Please Find My Baby
TTITLE18=Eddie Kirkland - No Shoes
TTITLE19=Lafayette Thomas - The Thing
TTITLE20=Frankie Lee Sims - Well Goodbye Baby
TTITLE21=Eddie Taylor - I'm Gonna Love You
TTITLE22=Hop Wilson - A Good Woman Is Hard To Find
TTITLE23=Lee Jackson - Fishin' In My Pond
TTITLE24=Bo Diddley - Bo's Guitar
EXTD=
EXTT0=
EXTT1=
EXTT2=
EXTT3=
EXTT4=
EXTT5=
EXTT6=
EXTT7=
EXTT8=
EXTT9=
EXTT10=
EXTT11=
EXTT12=
EXTT13=
EXTT14=
EXTT15=
EXTT16=
EXTT17=
EXTT18=
EXTT19=
EXTT20=
EXTT21=
EXTT22=
EXTT23=
EXTT24=
PLAYORDER=
